<svg width="43" height="44" viewBox="0 0 43 44" fill="none" xmlns="http://www.w3.org/2000/svg">
<path d="M1.3158 0.890966C1.44053 0.573092 1.68023 0.316662 1.98502 0.175024C2.28982 0.0333853 2.63625 0.0174428 2.95224 0.130513C3.26823 0.243583 3.52946 0.47696 3.68158 0.782094C3.83369 1.08723 3.86499 1.44062 3.76895 1.76877C1.7716 7.64277 5.73619 12.0296 8.75909 14.3792L9.9803 12.5884C10.3909 11.9878 11.309 11.4884 12.0228 11.4796L18.877 11.5104C19.7143 11.5362 20.5292 11.7932 21.2355 12.254L41.4326 26.7454C41.9024 27.0836 42.2221 27.5986 42.3216 28.1775C42.4211 28.7565 42.2924 29.3521 41.9637 29.8342L32.7853 43.2718C32.0973 44.2728 30.9987 44.1518 30.0183 43.4522L9.82119 28.9586C9.2407 28.5384 8.56989 27.632 8.33339 26.939L6.18769 20.02C5.95119 19.3292 6.09525 18.2754 6.50589 17.6748L7.24979 16.5836C3.19059 13.4002 -1.0234 7.77477 1.3158 0.890966ZM10.7134 21.4786C11.0855 21.7451 11.5053 21.934 11.9487 22.0344C12.3922 22.1349 12.8506 22.1449 13.2978 22.064C13.7451 21.9831 14.1724 21.8128 14.5553 21.5629C14.9382 21.313 15.2692 20.9883 15.5294 20.6074C16.0563 19.8366 16.2629 18.8834 16.1036 17.957C15.9444 17.0306 15.4325 16.2067 14.6802 15.6662C14.0904 15.2434 13.3863 15.0197 12.6662 15.0264C11.9462 15.0331 11.2461 15.2698 10.664 15.7036C11.2488 16.0644 11.6508 16.2756 11.7261 16.3086C11.9926 16.4386 12.2081 16.6574 12.3371 16.9291C12.4662 17.2009 12.5013 17.5094 12.4366 17.8042C12.3719 18.0989 12.2112 18.3625 11.981 18.5516C11.7507 18.7408 11.4645 18.8443 11.1692 18.8452C10.9843 18.8452 10.7951 18.8012 10.6167 18.7154C10.1996 18.513 9.7524 18.2732 9.28585 17.9894C9.17852 18.6495 9.25558 19.3272 9.50814 19.9445C9.76071 20.5618 10.1785 21.0936 10.7134 21.4786Z" fill="#91C914"/>
</svg>
