<svg width="54" height="54" viewBox="0 0 54 54" fill="none" xmlns="http://www.w3.org/2000/svg">
<path d="M9.05509 14.5488C4.94593 18.967 5.331 24.6672 5.34369 24.7323L5.26279 42.0654C5.26011 42.64 5.48581 43.1922 5.89023 43.6004C6.29466 44.0086 6.84469 44.2395 7.41932 44.2421L20.4192 44.3028C22.809 44.314 24.7615 42.3796 24.7727 39.9898L24.8435 24.8233C24.8462 24.2486 24.6205 23.6965 24.216 23.2883C23.8116 22.88 23.2616 22.6492 22.6869 22.6465L16.018 22.6154C16.0688 21.5444 16.3937 20.5045 16.9616 19.5951C18.0704 17.8647 20.1494 16.6893 23.1443 16.1052L24.8857 15.7667L24.9143 9.65677L22.7476 9.64665C16.7179 9.61851 12.1103 11.2675 9.05509 14.5488ZM32.9033 14.6601C28.792 19.0783 29.1792 24.7785 29.1919 24.8436L29.111 42.1767C29.1084 42.7513 29.334 43.3035 29.7385 43.7117C30.1429 44.1199 30.6929 44.3508 31.2676 44.3535L44.2674 44.4141C46.6572 44.4253 48.6098 42.4909 48.6209 40.1011L48.6917 24.9346C48.6944 24.3599 48.4687 23.8078 48.0643 23.3996C47.6598 22.9913 47.1098 22.7605 46.5352 22.7578L39.8663 22.7267C39.917 21.6557 40.2419 20.6158 40.8099 19.7064C41.9186 17.9761 43.9976 16.8006 46.9926 16.2165L48.734 15.878L48.7625 9.76807L46.5959 9.75796C40.5661 9.72982 35.9585 11.3788 32.9033 14.6601Z" fill="#DDDDDD"/>
</svg>
